<?xml version="1.0" standalone="no"?><!DOCTYPE svg PUBLIC "-//W3C//DTD SVG 1.1//EN" "http://www.w3.org/Graphics/SVG/1.1/DTD/svg11.dtd"><svg t="1514539311978" class="icon" style="" viewBox="0 0 1024 1024" version="1.1" xmlns="http://www.w3.org/2000/svg" p-id="6796" xmlns:xlink="http://www.w3.org/1999/xlink" width="16" height="16"><defs><style type="text/css"></style></defs><path d="M512 960.387879C263.757576 960.387879 63.612121 760.242424 63.612121 512S263.757576 63.612121 512 63.612121H538.375758c246.690909 13.963636 435.975758 226.521212 422.012121 473.212121C946.424242 774.206061 749.381818 960.387879 512 960.387879zM453.042424 915.393939c-44.993939-35.684848-83.781818-80.678788-114.812121-128.775757-26.375758 13.963636-49.648485 31.030303-72.921212 49.648485 55.854545 41.890909 119.466667 68.266667 187.733333 79.127272z m-218.763636-107.054545c24.824242-23.272727 52.751515-41.890909 83.781818-58.957576-35.684848-66.715152-55.854545-141.187879-60.509091-217.212121H105.50303c4.654545 105.50303 51.2 204.8 128.775758 276.169697zM105.50303 491.830303h152.048485c1.551515-80.678788 21.721212-159.806061 60.509091-229.624242-27.927273-13.963636-52.751515-32.581818-76.024242-52.751516-82.230303 71.369697-131.878788 173.769697-136.533334 282.375758z m167.563637-310.30303c20.169697 17.066667 41.890909 31.030303 63.612121 43.442424 26.375758-41.890909 58.957576-79.127273 96.193939-111.709091-57.406061 10.860606-111.709091 34.133333-159.80606 68.266667z m218.763636-69.818182c-46.545455 35.684848-86.884848 79.127273-117.915151 128.775757 37.236364 15.515152 77.575758 24.824242 117.915151 27.927273V111.709091z m0 198.593939c-48.09697-3.10303-94.642424-13.963636-138.084848-32.581818-34.133333 66.715152-52.751515 139.636364-54.303031 212.557576h192.387879V310.30303z m0 221.866667H299.442424c3.10303 69.818182 21.721212 138.084848 54.303031 200.145455 43.442424-18.618182 89.987879-29.478788 138.084848-32.581819V532.169697z m0 207.90303c-40.339394 3.10303-80.678788 12.412121-117.915151 27.927273 31.030303 49.648485 71.369697 93.090909 117.915151 128.775758V740.072727z m426.666667-207.90303h-152.048485c-4.654545 72.921212-23.272727 144.290909-55.854546 207.90303 32.581818 15.515152 62.060606 35.684848 89.987879 57.406061 69.818182-69.818182 113.260606-164.460606 117.915152-265.309091z m-148.945455 294.787879c-10.860606-9.309091-23.272727-18.618182-35.684848-26.375758-13.963636-9.309091-29.478788-17.066667-43.442425-24.824242-32.581818 52.751515-72.921212 99.29697-121.018181 138.084848 72.921212-9.309091 142.739394-40.339394 200.145454-86.884848z m-237.381818 71.369697c48.09697-37.236364 89.987879-83.781818 122.569697-136.533334-38.787879-13.963636-80.678788-21.721212-122.569697-23.272727v159.806061z m0-200.145455c48.09697 1.551515 96.193939 10.860606 141.187879 26.375758 29.478788-60.509091 48.09697-125.672727 51.2-192.387879H532.169697V698.181818z m0-206.351515h193.939394c-1.551515-72.921212-18.618182-144.290909-49.648485-209.454545-46.545455 18.618182-94.642424 27.927273-144.290909 29.478787v179.975758z m1.551515-386.327273h-1.551515v164.460606c41.890909-1.551515 83.781818-9.309091 124.121212-24.824242-31.030303-54.30303-72.921212-100.848485-122.569697-139.636364z m66.715152 9.309091c35.684848 34.133333 66.715152 72.921212 93.090909 114.812121 13.963636-6.206061 26.375758-13.963636 40.339394-23.272727 9.309091-6.206061 17.066667-12.412121 26.375757-18.618182-49.648485-35.684848-102.4-60.509091-159.80606-72.921212z m189.284848 99.29697c-23.272727 20.169697-49.648485 37.236364-77.575757 51.2 34.133333 69.818182 52.751515 147.393939 54.30303 226.521212h152.048485c-4.654545-105.50303-51.2-204.8-128.775758-277.721212z" p-id="6797"></path></svg>