<?xml version="1.0" standalone="no"?><!DOCTYPE svg PUBLIC "-//W3C//DTD SVG 1.1//EN" "http://www.w3.org/Graphics/SVG/1.1/DTD/svg11.dtd"><svg t="1514537441606" class="icon" style="" viewBox="0 0 1024 1024" version="1.1" xmlns="http://www.w3.org/2000/svg" p-id="21597" xmlns:xlink="http://www.w3.org/1999/xlink" width="200" height="200"><defs><style type="text/css"></style></defs><path d="M793.62048 483.38944c-34.03776 0-67.03104-9.8304-92.91776-27.68896a114.2784 114.2784 0 0 1-5.75488-4.17792c-26.46016 20.41856-61.39904 31.8464-98.63168 31.8464-37.56032 0-72.64256-11.50976-99.1232-32.07168-26.50112 20.56192-61.60384 32.07168-99.1232 32.07168-37.04832 0-71.82336-11.264-98.2016-31.37536-26.39872 20.11136-61.17376 31.37536-98.16064 31.37536-79.27808 0-143.7696-52.6336-143.7696-117.30944a79.54432 79.54432 0 0 1 0.83968-20.84864l2.10944-7.74144 94.208-196.77184c9.216-35.30752 46.85824-60.66176 90.624-60.66176h502.72256c43.76576 0 81.408 25.35424 90.64448 60.66176l96.3584 204.4928 0.73728 5.9392c0.73728 4.01408 1.2288 9.5232 1.2288 14.9504-0.02048 64.67584-64.512 117.30944-143.79008 117.30944z m-98.7136-88.8832l14.80704 15.44192c4.21888 4.38272 8.99072 8.43776 14.21312 12.02176 19.1488 13.2096 43.88864 20.45952 69.69344 20.45952 56.70912 0 102.83008-34.24256 102.83008-76.34944 0-3.11296-0.28672-6.28736-0.8192-9.40032l-0.53248-4.1984-95.39584-200.45824c-3.8912-17.69472-25.94816-31.04768-51.24096-31.04768H245.71904c-25.31328 0-47.34976 13.33248-51.22048 31.0272l-1.536 4.44416-93.92128 196.096a43.06944 43.06944 0 0 0-0.28672 10.752l0.1024 2.06848c0 42.82368 46.12096 77.06624 102.8096 77.06624 32.84992 0 64.06144-11.93984 83.47648-31.9488l14.70464-15.1552 14.70464 15.17568c19.37408 20.00896 50.5856 31.9488 83.49696 31.9488 33.36192 0 64.86016-12.24704 84.25472-32.72704l14.88896-15.74912 14.88896 15.7696c19.33312 20.48 50.83136 32.72704 84.21376 32.72704 33.03424 0 64.38912-12.14464 83.82464-32.4608l14.78656-15.50336z" fill="#090204" p-id="21598"></path><path d="M770.1504 888.36096H237.54752A99.08224 99.08224 0 0 1 167.1168 858.7264a99.18464 99.18464 0 0 1-28.11904-71.12704V455.70048a20.48 20.48 0 0 1 40.96 0v332.34944a58.1632 58.1632 0 0 0 16.42496 42.02496 57.9584 57.9584 0 0 0 41.18528 17.34656h531.456c15.27808-0.22528 30.3104-5.79584 41.10336-16.56832a57.1392 57.1392 0 0 0 16.5888-40.83712V455.70048a20.48 20.48 0 1 1 40.96 0v334.0288a97.87392 97.87392 0 0 1-28.59008 70.08256 98.05824 98.05824 0 0 1-68.93568 28.54912z" fill="#070001" p-id="21599"></path><path d="M266.81344 598.34368a19.968 19.968 0 0 0-3.2768 5.59104 19.90656 19.90656 0 0 0-0.4096 14.17216 18.10432 18.10432 0 0 0 3.11296 7.12704c1.08544 1.35168 2.27328 2.56 3.62496 3.66592a11.6736 11.6736 0 0 0 3.76832 1.90464c1.00352 2.84672 1.92512 5.55008 2.78528 8.17152 0.83968 2.62144 1.8432 4.54656 2.92864 6.656a15.70816 15.70816 0 0 0 3.95264 5.28384c3.13344 2.39616 5.75488 4.79232 8.31488 7.10656a14.21312 14.21312 0 0 1 4.11648 9.74848v7.43424a16.71168 16.71168 0 0 1-1.29024 6.61504 17.12128 17.12128 0 0 1-4.25984 6.3488 42.9056 42.9056 0 0 1-8.94976 6.57408 54.6816 54.6816 0 0 1-16.50688 7.10656c-6.26688 1.67936-12.22656 3.2768-18.20672 5.28384-5.50912 1.82272-10.67008 4.5056-15.31904 7.9872-4.54656 3.70688-7.4752 9.0112-8.17152 14.86848a97.8944 97.8944 0 0 0-1.29024 27.56608c0.9216 7.12704 2.56 11.63264 4.54656 13.02528 4.44416 2.29376 9.23648 3.82976 14.21312 4.38272a620.40064 620.40064 0 0 0 59.26912 9.03168c9.4208 1.04448 18.92352 1.59744 28.42624 1.67936 5.09952 0 11.44832 0 18.5344-0.69632 7.10656-0.69632 14.58176-1.26976 22.30272-2.17088a1350.0416 1350.0416 0 0 0 22.95808-2.92864c7.65952-1.08544 14.70464-2.47808 21.31968-3.80928 5.28384-1.08544 10.48576-2.43712 15.64672-4.07552a17.8176 17.8176 0 0 0 7.80288-3.91168 26.4192 26.4192 0 0 0 2.92864-8.6016c0.45056-3.91168 0.69632-7.92576 0.69632-11.85792 0-4.11648 0-8.2944-0.69632-12.41088a52.28544 52.28544 0 0 0-2.06848-10.15808 23.63392 23.63392 0 0 0-8.31488-11.1616 63.03744 63.03744 0 0 0-13.43488-7.12704 150.15936 150.15936 0 0 0-15.48288-4.75136 116.51072 116.51072 0 0 1-14.86848-4.608 42.43456 42.43456 0 0 1-11.776-6.59456 23.53152 23.53152 0 0 1-6.26688-7.76192 24.39168 24.39168 0 0 1-2.19136-8.31488 28.40576 28.40576 0 0 1 0.63488-8.11008 23.7568 23.7568 0 0 1 1.55648-5.3248 12.6976 12.6976 0 0 1 2.70336-3.7888c1.18784-1.14688 2.43712-2.1504 3.76832-3.11296a65.1264 65.1264 0 0 0 4.77184-3.64544 15.872 15.872 0 0 0 3.8912-5.24288c1.18784-2.1504 2.21184-4.4032 3.11296-6.67648a69.4272 69.4272 0 0 0 2.3552-8.15104 13.90592 13.90592 0 0 0 5.26336-2.99008 19.3536 19.3536 0 0 0 3.95264-5.12c1.3312-2.7648 2.21184-5.71392 2.64192-8.82688a18.8416 18.8416 0 0 0 0-7.10656 15.72864 15.72864 0 0 0-1.78176-4.68992 7.168 7.168 0 0 0-2.99008-3.19488 114.3808 114.3808 0 0 0-1.29024-21.31968 108.83072 108.83072 0 0 0-4.75136-19.12832 62.7712 62.7712 0 0 0-10.24-18.59584 41.8816 41.8816 0 0 0-7.96672-7.12704 71.51616 71.51616 0 0 0-11.1616-6.51264 82.5344 82.5344 0 0 0-13.70112-4.68992 56.60672 56.60672 0 0 0-15.07328-1.8432 91.5456 91.5456 0 0 0-12.92288 1.00352 65.8432 65.8432 0 0 0-26.29632 10.91584 56.4224 56.4224 0 0 0-11.50976 11.75552 59.392 59.392 0 0 0-8.31488 17.2032 129.39264 129.39264 0 0 0-3.91168 18.00192c-0.88064 6.5536-1.31072 13.23008-1.20832 19.92704z m470.44608-63.93856H487.15776a15.6672 15.6672 0 1 0 0 31.35488h250.10176a15.68768 15.68768 0 0 0 0-31.35488z m0 93.92128H487.15776a15.70816 15.70816 0 0 0 0 31.37536h250.10176a15.68768 15.68768 0 0 0 0-31.37536z m0 93.92128H487.15776a15.70816 15.70816 0 0 0 0 31.37536h250.10176a15.6672 15.6672 0 1 0 0-31.37536z" fill="#040000" p-id="21600"></path></svg>