<?xml version="1.0" standalone="no"?><!DOCTYPE svg PUBLIC "-//W3C//DTD SVG 1.1//EN" "http://www.w3.org/Graphics/SVG/1.1/DTD/svg11.dtd"><svg t="1514538160710" class="icon" style="" viewBox="0 0 1024 1024" version="1.1" xmlns="http://www.w3.org/2000/svg" p-id="1823" xmlns:xlink="http://www.w3.org/1999/xlink" width="200" height="200"><defs><style type="text/css"></style></defs><path d="M830.842528 893.087239V176.457523l-113.311525-98.747418-377.092875 140.913269v35.245041l342.464503-115.429122v806.353324H910.883084v-51.705378h-80.040556zM217.713573 672.323159l179.573712-35.921311v-91.113851L217.713573 592.500322v79.822837z m0 273.683336h179.573712v-95.600822L217.713573 863.433579v82.572916z m0-137.280148l179.573712-17.342161v-90.963029L217.713573 730.61121v78.115137z m0-275.437257l179.573712-49.418713v-94.647234L217.713573 449.975441v83.313649z m378.756788-235.326971l-101.405058-61.608581-381.757427 137.651123L113.116916 947.939213h50.287158V401.763309l285.634808-94.06827V945.037095h147.449723l-0.018244-647.074976z" p-id="1824"></path></svg>