<?xml version="1.0" standalone="no"?><!DOCTYPE svg PUBLIC "-//W3C//DTD SVG 1.1//EN" "http://www.w3.org/Graphics/SVG/1.1/DTD/svg11.dtd"><svg t="1514537719789" class="icon" style="" viewBox="0 0 1024 1024" version="1.1" xmlns="http://www.w3.org/2000/svg" p-id="22668" xmlns:xlink="http://www.w3.org/1999/xlink" width="200" height="200"><defs><style type="text/css"></style></defs><path d="M938.299843 1024 85.700157 1024C38.542037 1024 0.187677 984.280716 0.187677 935.484688L0.187677 88.549435C0.187677 39.753407 38.542037 0 85.700157 0L938.299843 0C985.457963 0 1023.812323 39.753407 1023.812323 88.549435L1023.812323 935.484688C1023.812323 984.280716 985.457963 1024 938.299843 1024ZM955.56613 89.539005C955.56613 78.107768 947.683695 68.450931 938.299843 68.450931L85.700157 68.450931C76.350428 68.450931 68.43387 78.107768 68.43387 89.539005L68.43387 934.460995C68.43387 945.926355 76.350428 955.583192 85.700157 955.583192L938.299843 955.583192C947.683695 955.583192 955.56613 945.926355 955.56613 934.460995L955.56613 89.539005ZM614.028058 171.059082 818.69839 171.059082 818.69839 238.418075 614.028058 238.418075 614.028058 171.059082ZM818.664267 444.00973 545.713619 444.00973 545.713619 375.558799 818.664267 375.558799 818.664267 444.00973ZM477.84278 357.575927 477.84278 354.061248C477.911027 355.835649 477.876904 356.961711 477.876904 357.029958L477.84278 357.575927ZM355.204372 477.825719 204.892132 477.825719C204.721517 451.892166 204.823886 417.871439 204.892132 409.579526L341.384518 409.579526C375.166383 409.374788 409.630711 416.131161 409.630711 375.45643 409.630711 307.210237 365.373055 310.315439 341.384518 307.210237L273.138325 307.210237C273.138325 307.210237 273.138325 341.333333 272.251125 357.473558L272.080509 357.473558C256.5545 349.488753 180.118764 309.428238 152.342564 290.592289 142.037389 283.597054 136.748309 276.465327 136.64594 269.401846 136.611816 259.028425 146.575761 246.948849 167.151988 232.378287 185.885568 219.070279 207.041887 206.85421 225.741344 196.105435L229.870239 193.716818C243.041754 186.175614 254.438868 179.623979 263.27675 173.720684 265.904229 171.946283 267.542137 171.297944 268.6682 170.956713 268.361092 179.555733 273.138325 238.964044 273.138325 238.964044L354.726649 237.530874C393.012763 237.530874 423.211703 248.313773 444.436269 269.538338 470.335699 295.710753 476.204872 331.164651 477.50155 347.748475 476.887334 382.246926 466.991636 423.365257 447.473225 442.67893 412.940651 476.836149 361.005298 477.825719 355.204372 477.825719ZM269.145923 170.717851C269.077677 170.717851 268.770569 170.92259 268.6682 170.956713 268.702323 169.694158 268.872938 169.48942 269.145923 170.717851ZM477.876904 341.333333 477.84278 354.061248C477.808657 352.491586 477.706288 350.410077 477.50155 347.748475 477.535673 345.632843 477.911027 343.380719 477.876904 341.333333ZM818.69839 682.632544 239.049352 682.632544 239.049352 614.215735 818.69839 614.215735 818.69839 682.632544ZM818.69839 818.920191 239.049352 818.920191 239.049352 750.469259 818.69839 750.469259 818.69839 818.920191Z" p-id="22669"></path></svg>