<?xml version="1.0" standalone="no"?><!DOCTYPE svg PUBLIC "-//W3C//DTD SVG 1.1//EN" "http://www.w3.org/Graphics/SVG/1.1/DTD/svg11.dtd"><svg t="1514537685344" class="icon" style="" viewBox="0 0 1024 1024" version="1.1" xmlns="http://www.w3.org/2000/svg" p-id="22419" xmlns:xlink="http://www.w3.org/1999/xlink" width="200" height="200"><defs><style type="text/css"></style></defs><path d="M231.761964 213.742318l56.047607 0 0-56.047607L231.761964 157.694711 231.761964 213.742318 231.761964 213.742318zM318.947131 550.027961 711.280381 550.027961 711.280381 493.980354 318.947131 493.980354 318.947131 550.027961 318.947131 550.027961zM231.761964 718.171999l56.047607 0 0-56.047607L231.761964 662.124392 231.761964 718.171999 231.761964 718.171999zM231.761964 550.027961l56.047607 0L287.809571 493.980354 231.761964 493.980354 231.761964 550.027961 231.761964 550.027961zM231.761964 381.885139l56.047607 0 0-56.047607L231.761964 325.837532 231.761964 381.885139 231.761964 381.885139zM318.947131 381.885139 711.280381 381.885139l0-56.047607L318.947131 325.837532 318.947131 381.885139 318.947131 381.885139zM318.947131 213.742318 711.280381 213.742318l0-56.047607L318.947131 157.694711 318.947131 213.742318 318.947131 213.742318zM879.424419 643.439423 879.424419 114.102127c0-62.275119-56.047607-99.640191-118.323943-99.640191L169.486845 14.461937C107.211726 14.461937 63.619143 51.827008 63.619143 114.102127l0 709.936357c0 62.276335 43.592583 118.323943 105.867702 118.323943l435.924617 0c37.366288 31.13756 93.413895 68.500198 149.461502 68.500198 112.095214 0 205.506677-93.411462 205.506677-205.506677C960.379641 743.079614 935.472026 680.805711 879.424419 643.439423L879.424419 643.439423zM318.947131 662.124392l0 56.047607 261.554284 0c-12.452591 24.908831-18.681319 56.047607-18.681319 87.185167 0 24.910048 6.228728 49.818879 12.455024 80.958871L169.486845 886.316037c-31.13756 0-49.820095-31.139992-49.820095-62.276335L119.66675 114.102127c0-31.13756 18.682536-43.592583 49.820095-43.592583l591.612415 0c31.13756 0 62.276335 12.455024 62.276335 43.592583l0 498.200953c-31.139992-6.226296-43.592583-12.455024-62.276335-12.455024-56.047607 0-105.866486 24.910048-143.232774 62.276335L318.947131 662.124392 318.947131 662.124392zM711.280381 911.222435 617.867702 792.900925l37.366288-31.13756 62.273903 80.956438L879.424419 705.715759l31.13756 37.363855L711.280381 911.222435 711.280381 911.222435z" p-id="22420"></path></svg>