<?xml version="1.0" standalone="no"?><!DOCTYPE svg PUBLIC "-//W3C//DTD SVG 1.1//EN" "http://www.w3.org/Graphics/SVG/1.1/DTD/svg11.dtd"><svg t="1514538280072" class="icon" style="" viewBox="0 0 1024 1024" version="1.1" xmlns="http://www.w3.org/2000/svg" p-id="2065" xmlns:xlink="http://www.w3.org/1999/xlink" width="200" height="200"><defs><style type="text/css"></style></defs><path d="M827.52 784.512c-4.672-12.48-12.16-22.784-22.72-30.784-10.56-7.936-22.528-14.592-35.968-19.712s-27.392-9.536-41.984-13.312c-14.528-3.712-27.776-8.064-39.744-13.248-13.76-5.12-24.384-11.2-32.064-17.984-7.744-6.848-13.312-13.952-16.768-21.44-3.392-7.36-5.248-14.912-5.568-22.656-0.32-7.68 0.128-15.232 1.344-22.656 1.152-5.696 2.624-10.56 4.608-14.592 2.048-4.032 4.48-7.616 7.296-10.752s6.208-6.144 9.856-9.024 7.872-6.272 12.416-10.24c3.968-2.88 7.616-7.488 11.072-13.696 3.52-6.336 6.336-12.544 8.704-18.816 2.24-6.848 4.416-14.592 6.72-23.168 5.184-1.152 9.664-3.712 13.76-7.68 3.456-3.456 6.784-8.256 10.304-14.592 3.392-6.208 5.632-14.528 6.784-24.768 1.152-8 0.96-14.72-0.512-20.096-1.344-5.376-2.944-9.856-4.672-13.312-2.304-3.968-4.928-7.168-7.68-9.408 0.512-19.392-0.64-38.848-3.456-58.24-2.816-16.576-7.296-34.432-13.312-53.568-5.888-19.136-15.168-36.352-27.776-51.776-10.88-13.696-27.712-26.56-50.56-38.528S568.96 212.416 539.776 212.416c-10.816 0-22.272 0.832-34.176 2.56C493.568 216.704 481.6 219.968 469.568 224.832 457.6 229.632 445.952 236.352 434.496 244.928 423.104 253.504 412.8 264.64 403.712 278.336 393.344 293.184 385.856 309.312 380.992 326.72 376.192 344.128 372.544 360.832 370.304 376.832c-2.304 18.88-3.2 37.376-2.56 55.68C363.776 437.056 360.64 442.24 358.336 447.936 356.032 452.48 354.56 458.368 354.048 465.472 353.472 472.64 354.56 480.192 357.376 488.192c3.008 8 6.016 14.336 9.024 18.816 3.2 4.544 6.208 8 9.088 10.304 3.392 2.304 6.784 3.968 10.304 5.12 2.24 8.576 4.48 16.32 6.784 23.168C394.88 551.872 397.568 558.08 400.768 564.416c3.136 6.272 6.656 11.136 10.624 14.592 8 6.208 15.36 12.608 22.272 19.264C440.512 604.8 444.416 613.76 445.632 625.28c0.576 8 0.896 15.104 0.896 21.376 0 6.336-1.344 12.224-3.968 17.984-2.432 5.696-6.528 11.392-11.904 17.152-5.44 5.76-13.312 12.032-23.488 18.816-13.184 8.576-28.224 14.976-44.992 19.328-16.896 4.224-33.28 9.28-49.28 14.976C296.96 740.48 283.072 748.032 271.36 757.12s-18.944 22.784-21.824 41.152c-4.544 31.36-5.44 57.088-2.56 77.056 2.88 19.968 6.592 32 11.136 35.968 2.816 2.368 9.92 4.736 20.992 7.36 11.136 2.496 24.832 5.12 41.152 7.616 16.192 2.624 34.112 4.864 53.504 6.848 19.328 1.984 39.04 3.84 59.072 5.568 19.904 1.664 39.296 3.2 57.728 4.288 18.496 1.152 34.944 1.664 49.216 1.664 14.336 0 30.912-0.576 49.664-1.664 18.816-1.152 38.4-2.624 58.624-4.288 20.288-1.728 40.448-3.904 60.416-6.464 19.968-2.496 38.208-5.248 54.656-8.128 16.64-2.88 30.464-6.016 41.536-9.344 11.2-3.52 17.856-6.848 20.096-10.368 3.392-5.056 6.016-12.736 7.616-23.04 1.728-10.24 2.624-21.312 2.624-32.96 0-11.776-0.704-23.36-2.176-34.752C831.616 802.24 829.76 792.512 827.52 784.512L827.52 784.512z" p-id="2066"></path><path d="M335.808 678.976c17.024-5.76 33.152-13.12 47.936-22.272 6.208-4.032 10.24-7.744 11.904-11.136 1.664-3.456 3.2-8.256 4.288-14.656-1.152-5.632-1.792-10.24-2.112-13.696C397.504 613.952 396.672 611.136 395.2 609.28c-1.344-2.048-3.2-4.096-5.504-6.528-2.304-2.24-5.504-5.12-9.408-8.512C375.68 590.72 371.904 585.472 368.768 578.368 365.504 571.2 362.88 564.224 360.64 557.312 358.336 549.376 356.032 540.8 353.664 531.712 350.336 530.56 346.88 528.256 343.424 524.8 340.544 521.984 337.408 517.952 334.08 512.896 330.56 507.712 327.488 500.288 324.608 490.624 321.664 481.408 320.576 473.024 321.216 465.28 321.664 457.6 323.2 450.88 325.504 445.12c2.24-6.208 5.696-11.968 10.304-17.088 0-19.968 1.344-40 4.288-59.968 2.752-16.576 7.04-34.496 12.672-53.952 5.824-19.392 14.336-37.12 25.728-53.12 9.152-12.48 19.84-24.96 32.064-37.248C422.912 211.456 434.496 202.24 445.312 195.968 441.856 185.088 439.168 175.552 437.248 167.296 435.2 158.912 430.528 150.016 423.104 140.224 411.712 126.592 394.56 113.664 371.776 101.76 348.928 89.664 323.2 83.712 294.656 83.712c-11.52 0-23.104 0.896-35.136 2.624C247.552 88 235.776 91.328 224.064 96.128 212.352 101.056 200.832 107.712 189.312 116.288 177.92 124.8 167.68 136 158.528 149.696c-10.24 14.272-17.92 30.272-23.104 47.936-5.12 17.664-8.832 34.304-11.072 49.664-2.24 18.816-3.136 37.376-2.624 55.68C117.696 307.008 114.56 312.128 112.384 318.4c-2.368 5.184-3.84 11.264-4.288 18.432-0.64 7.104 0.512 14.656 3.456 22.656 2.752 8 5.76 14.272 8.96 18.88 3.136 4.544 6.144 8 9.024 10.24 3.456 2.24 6.848 4.032 10.24 5.184 2.24 8.512 4.544 16.256 6.784 23.04C148.8 423.168 151.552 429.44 154.688 435.776c3.072 6.336 6.976 10.816 11.584 13.632 8 6.848 15.296 13.568 21.888 20.16C194.688 476.16 198.592 485.184 199.68 496.576c0.448 7.424 0.768 14.272 0.768 20.608 0 6.208-1.088 12.416-3.392 18.368C194.816 541.504 190.848 547.392 185.472 553.088 180.032 558.784 172.224 565.12 161.92 571.968 148.8 579.968 133.952 586.176 116.992 590.72c-16.832 4.608-33.28 9.6-49.216 14.976C51.84 611.136 38.016 618.624 26.304 628.032c-11.776 9.472-19.072 22.976-21.888 40.768-4.544 31.936-5.632 57.984-3.008 77.888 2.624 20.032 6.336 32 11.584 36.032 3.392 2.88 11.712 5.76 24.896 8.64 13.056 2.816 29.248 5.696 48.32 8.512 19.136 2.88 40.064 5.504 62.848 7.744 22.912 2.24 45.44 4.224 67.776 6.016 0.512-1.216 1.152-2.176 1.6-3.008 0.64-0.896 1.216-1.856 1.728-3.008 0.576-5.12 1.024-10.752 1.344-16.768 0.192-6.016 0.896-12.096 2.048-18.368 2.88-20.608 10.112-36.352 21.888-47.552 11.776-11.136 25.344-20.096 41.088-26.944C302.208 691.008 318.656 684.736 335.808 678.976L335.808 678.976z" p-id="2067"></path><path d="M994.368 158.528l-245.888 0c-13.888 0-25.216 11.456-25.216 25.6l0 159.936c0 14.144 11.328 25.6 25.216 25.6l37.824 0 0 39.488c0 7.104 5.696 12.8 12.608 12.8 3.584 0 6.656-1.472 9.024-3.904l47.744-48.384 138.688 0c13.952 0 25.28-11.456 25.28-25.6L1019.648 184.128C1019.648 169.984 1008.32 158.528 994.368 158.528zM814.72 286.528c-8.832 0-15.808-7.168-15.808-16 0-8.832 6.976-16 15.808-16 8.704 0 15.744 7.168 15.744 16C830.528 279.36 823.424 286.528 814.72 286.528zM871.488 286.528c-8.704 0-15.808-7.168-15.808-16 0-8.832 7.104-16 15.808-16 8.64 0 15.68 7.168 15.68 16C887.168 279.36 880.128 286.528 871.488 286.528zM928.192 286.528c-8.704 0-15.744-7.168-15.744-16 0-8.832 7.04-16 15.744-16s15.744 7.168 15.744 16C943.936 279.36 936.896 286.528 928.192 286.528z" p-id="2068"></path></svg>