<?xml version="1.0" standalone="no"?><!DOCTYPE svg PUBLIC "-//W3C//DTD SVG 1.1//EN" "http://www.w3.org/Graphics/SVG/1.1/DTD/svg11.dtd"><svg t="1514537225152" class="icon" style="" viewBox="0 0 1024 1024" version="1.1" xmlns="http://www.w3.org/2000/svg" p-id="20849" xmlns:xlink="http://www.w3.org/1999/xlink" width="200" height="200"><defs><style type="text/css"></style></defs><path d="M644.853 644.601c9.165 0 16.607-7.44 16.607-16.605s-7.442-16.605-16.607-16.605H530.236l104.588-167.367c4.845-7.769 2.49-18.03-5.284-22.882-7.772-4.884-18.035-2.523-22.848 5.283l-106.418 170.25-106.412-170.25c-4.852-7.806-15.082-10.167-22.888-5.283-7.772 4.851-10.13 15.113-5.279 22.882l104.59 167.367h-114.62c-9.169 0-16.61 7.44-16.61 16.605s7.441 16.605 16.61 16.605h127.97v39.06h-127.97c-9.17 0-16.61 7.474-16.61 16.606 0 9.202 7.44 16.605 16.61 16.605h127.97v127.974c0 9.165 7.441 16.605 16.606 16.605 9.17 0 16.605-7.44 16.605-16.605V716.839h128.007c9.165 0 16.607-7.403 16.607-16.606 0-9.131-7.442-16.605-16.607-16.605H516.88v-39.06h127.974v0.033zM179.866 97.547h631.052c9.17 0 16.61-7.441 16.61-16.611 0-9.165-7.44-16.605-16.61-16.605H179.866c-9.17 0-16.605 7.44-16.605 16.605 0 9.17 7.435 16.61 16.605 16.61z m-66.426 99.638h763.905c9.17 0 16.61-7.442 16.61-16.607 0-9.17-7.44-16.605-16.61-16.605H113.44c-9.17 0-16.605 7.436-16.605 16.605 0 9.165 7.435 16.607 16.605 16.607z m763.905 66.426H146.651c-45.768 0-83.032 37.264-83.032 83.032v531.414c0 45.802 37.264 83.037 83.032 83.037h730.694c45.802 0 83.036-37.235 83.036-83.037V346.643c0-45.768-37.234-83.032-83.036-83.032z m49.821 614.446c0 27.472-22.35 49.822-49.82 49.822H146.65c-27.467 0-49.816-22.35-49.816-49.822V346.643c0-27.467 22.35-49.817 49.816-49.817h730.694c27.472 0 49.821 22.35 49.821 49.817v531.414z m0 0" fill="#2c2c2c" p-id="20850"></path></svg>