<?xml version="1.0" standalone="no"?><!DOCTYPE svg PUBLIC "-//W3C//DTD SVG 1.1//EN" "http://www.w3.org/Graphics/SVG/1.1/DTD/svg11.dtd"><svg t="1514538186878" class="icon" style="" viewBox="0 0 1024 1024" version="1.1" xmlns="http://www.w3.org/2000/svg" p-id="1944" xmlns:xlink="http://www.w3.org/1999/xlink" width="200" height="200"><defs><style type="text/css"></style></defs><path d="M737.28 332.288c37.376-37.888 77.312-94.72 77.312-154.624 0-34.816-9.216-62.976-31.232-84.992-40.448-40.96-111.616-40.96-192.512-40.96H417.28c-77.312 0-139.776 0-179.712 37.888-21.504 22.016-31.232 50.688-31.232 88.576 0 62.976 40.448 116.736 74.24 154.624C144.384 404.48 51.2 549.888 51.2 698.368 51.2 972.8 381.952 972.8 512 972.8s460.8 0 460.8-274.432c0-151.552-96.256-293.888-235.52-366.08z m-132.096 258.56c18.432 0 31.232 12.8 31.232 31.744s-12.288 31.744-31.232 31.744h-61.952v31.744h61.952c18.432 0 31.232 12.8 31.232 31.744s-12.288 31.744-31.232 31.744h-61.952v66.048c0 18.944-12.288 31.744-31.232 31.744s-31.232-12.8-31.232-31.744v-66.048H418.816c-18.432 0-31.232-12.8-31.232-31.744s12.288-31.744 31.232-31.744h61.952v-31.744H418.816c-18.432 0-31.232-12.8-31.232-31.744s12.288-31.744 31.232-31.744h61.952v-18.944L394.24 486.912c-12.288-12.8-12.288-31.744 0-44.032 12.288-12.8 31.232-12.8 43.52 0l77.312 75.776 77.312-75.776c12.288-12.8 31.232-12.8 43.52 0 12.288 12.8 12.288 31.744 0 44.032L542.72 578.56v12.8h62.464z" p-id="1945"></path></svg>