<?xml version="1.0" standalone="no"?><!DOCTYPE svg PUBLIC "-//W3C//DTD SVG 1.1//EN" "http://www.w3.org/Graphics/SVG/1.1/DTD/svg11.dtd"><svg t="1514538132594" class="icon" style="" viewBox="0 0 1024 1024" version="1.1" xmlns="http://www.w3.org/2000/svg" p-id="1581" xmlns:xlink="http://www.w3.org/1999/xlink" width="200" height="200"><defs><style type="text/css"></style></defs><path d="M805.262222 256C758.670222 105.813333 646.826667 1.080889 512 1.080889 377.088 1.080889 265.301333 105.813333 218.680889 256H110.819556C50.176 256 0.853333 308.622222 0.853333 373.475556v533.162666C0.853333 971.377778 50.176 1024 110.819556 1024h802.360888c58.197333 0 105.443556-48.611556 109.226667-109.710222 0.142222-1.365333 0.739556-2.474667 0.739556-3.868445V373.475556c0-64.796444-49.322667-117.475556-109.966223-117.475556H805.262222zM512 86.016c95.232 0 172.060444 57.457778 212.508444 158.236444H299.52c40.448-100.778667 117.248-158.236444 212.48-158.236444M127.288889 938.666667C104.106667 938.666667 85.333333 917.617778 85.333333 891.733333v-503.466666c0-25.884444 18.773333-46.933333 41.955556-46.933334h83.143111a563.911111 563.911111 0 0 0-5.660444 79.189334c0 20.48 1.223111 12.885333 3.697777 34.958222-19.626667 13.994667-31.601778 37.859556-31.601777 63.914667 0 42.040889 30.748444 76.231111 68.579555 76.231111 37.745778 0 68.551111-34.190222 68.551111-76.231111 0-25.856-12.003556-49.863111-31.658666-63.914667-3.128889-22.385778-4.608-14.705778-4.608-34.958222 0-26.481778 2.275556-53.105778 6.656-79.189334h455.253333c4.408889 25.969778 6.656 52.565333 6.656 79.189334 0 20.536889-1.536 13.141333-4.636445 35.726222-19.057778 14.08-30.663111 37.859556-30.663111 63.146667 0 42.040889 30.72 76.231111 68.551111 76.231111s68.551111-34.190222 68.551112-76.231111c0-26.538667-12.259556-50.659556-32.426667-64.568889 2.389333-21.532444 3.555556-13.710222 3.555555-34.304 0-26.168889-1.877333-52.707556-5.575111-79.189334h83.143111c23.096889 0 41.870222 21.048889 41.870223 46.933334v503.608889c-0.085333 25.799111-18.830222 46.791111-41.870223 46.791111H127.288889z" p-id="1582"></path></svg>