<?xml version="1.0" standalone="no"?><!DOCTYPE svg PUBLIC "-//W3C//DTD SVG 1.1//EN" "http://www.w3.org/Graphics/SVG/1.1/DTD/svg11.dtd"><svg t="1514537601519" class="icon" style="" viewBox="0 0 1024 1024" version="1.1" xmlns="http://www.w3.org/2000/svg" p-id="21929" xmlns:xlink="http://www.w3.org/1999/xlink" width="200" height="200"><defs><style type="text/css"></style></defs><path d="M142.222222 0h56.888889v113.777778H142.222222zM170.666667 170.666667C91.022222 170.666667 28.444444 233.244444 28.444444 312.888889S91.022222 455.111111 170.666667 455.111111 312.888889 392.533333 312.888889 312.888889 250.311111 170.666667 170.666667 170.666667z m0 227.555555C125.155556 398.222222 85.333333 358.4 85.333333 312.888889S125.155556 227.555556 170.666667 227.555556 256 267.377778 256 312.888889 216.177778 398.222222 170.666667 398.222222zM142.222222 512h56.888889v512H142.222222zM483.555556 796.444444h56.888888v227.555556h-56.888888zM512 455.111111C432.355556 455.111111 369.777778 517.688889 369.777778 597.333333S432.355556 739.555556 512 739.555556 654.222222 676.977778 654.222222 597.333333 591.644444 455.111111 512 455.111111z m0 227.555556C466.488889 682.666667 426.666667 642.844444 426.666667 597.333333S466.488889 512 512 512s85.333333 39.822222 85.333333 85.333333S557.511111 682.666667 512 682.666667zM483.555556 0h56.888888v398.222222h-56.888888zM824.888889 0h56.888889v170.666667h-56.888889zM824.888889 568.888889h56.888889v455.111111h-56.888889zM853.333333 227.555556C773.688889 227.555556 711.111111 290.133333 711.111111 369.777778S773.688889 512 853.333333 512 995.555556 449.422222 995.555556 369.777778 932.977778 227.555556 853.333333 227.555556z m0 227.555555c-45.511111 0-85.333333-39.822222-85.333333-85.333333S807.822222 284.444444 853.333333 284.444444s85.333333 39.822222 85.333334 85.333334S898.844444 455.111111 853.333333 455.111111z" p-id="21930"></path></svg>