<?xml version="1.0" standalone="no"?><!DOCTYPE svg PUBLIC "-//W3C//DTD SVG 1.1//EN" "http://www.w3.org/Graphics/SVG/1.1/DTD/svg11.dtd"><svg t="1514535551732" class="icon" style="" viewBox="0 0 1024 1024" version="1.1" xmlns="http://www.w3.org/2000/svg" p-id="5140" data-spm-anchor-id="a313x.7781069.0.i1" xmlns:xlink="http://www.w3.org/1999/xlink" width="200" height="200"><defs><style type="text/css"></style></defs><path d="M1012.81792 447.50848L873.1648 331.25376v-128.6144a41.08288 41.08288 0 0 0-10.84416-27.88352c-6.90176-7.38304-16.24064-11.50976-25.9584-11.45856h-70.0928c-9.70752-0.03072-19.02592 4.096-25.9072 11.47904a41.0112 41.0112 0 0 0-10.8032 27.86304v17.72544L557.1584 80.70144a73.4208 73.4208 0 0 0-45.19936-15.57504 73.53344 73.53344 0 0 0-45.14816 15.57504L11.17184 447.45728A29.21472 29.21472 0 0 0 0.33792 466.3296c-1.1264 7.59808 0.6144 15.36 4.82304 21.57568 8.78592 12.89216 25.72288 15.79008 37.82656 6.42048l455.24992-366.55104a21.93408 21.93408 0 0 1 27.136-0.16384l0.60416 0.31744 455.00416 366.39744c12.12416 9.39008 28.9792 6.52288 37.8368-6.42048a30.55616 30.55616 0 0 0 4.84352-21.57568 29.1328 29.1328 0 0 0-10.84416-18.87232v0.0512z m-148.59264 60.02688L548.48512 249.55904l-0.2048-0.16384c-21.71904-16.5376-50.72896-16.57856-72.47872-0.1024l-0.29696 0.256L159.744 507.53536c-7.02464 5.41696-11.20256 14.15168-11.22304 23.45984v326.62528c0 55.8592 42.56768 101.26336 94.69952 101.26336h153.01632V715.3152c0-42.92608 32.512-77.63968 72.59136-77.63968h75.30496c40.13056 0 72.63232 34.7136 72.63232 77.70112V958.8736h163.96288c52.224 0 94.68928-45.40416 94.68928-101.26336V530.944c-0.06144-9.27744-4.21888-17.9712-11.19232-23.40864z" fill="#1296db" p-id="5141"></path></svg>