<?xml version="1.0" standalone="no"?><!DOCTYPE svg PUBLIC "-//W3C//DTD SVG 1.1//EN" "http://www.w3.org/Graphics/SVG/1.1/DTD/svg11.dtd"><svg t="1514538150629" class="icon" style="" viewBox="0 0 1024 1024" version="1.1" xmlns="http://www.w3.org/2000/svg" p-id="1702" xmlns:xlink="http://www.w3.org/1999/xlink" width="200" height="200"><defs><style type="text/css"></style></defs><path d="M542.2 1023.8c-42.7 0-89-22.1-89.4-22.3L114.7 849C107.6 846.7-30 799.9 6 615.6l441.8 178c-1 23.6-0.6 93.8 37.6 135.9 19.4 21.3 45.5 32.1 77.4 32.1 7.3 0 15.1-0.6 23.4-1.8 32.4-5.7 57-19 77.9-41.8 32-35.2 62-94.5 103.6-204.7C835.6 531.9 904.2 325.6 941 214.8l14.4-43.2L415.1 64.2 230.1 575c-3.9 11.7-15.9 19.8-29.3 19.8-3.5 0-6.9-0.5-10.1-1.6-14.9-5-23.2-23.3-17.9-39.3L368.7 20.3C373.1 8.1 384.3 0.2 397 0.2c1.8 0 3.7 0.2 5.5 0.5l596.7 119c8.2 1.4 15.5 6.7 18.9 13.7 5.8 7.6 7.2 16.1 4.7 23.5-0.1 0-0.7 1.8-8.3 25.4-26.7 83-107.8 335.5-191.1 551.7-39.4 103-72.5 176.4-115.3 224.4-39.8 43.1-86.6 63.1-151.7 64.8-6.4 0.4-10.3 0.6-14.2 0.6z m88-315.7c-1.7 0-6.2 0-7.6-0.7l-178.2-58.3c-15.6-5.2-24.6-22.4-19.6-37.5 4.1-12.4 15.9-21.1 28.7-21.1 3 0 6 0.5 8.9 1.4l176.8 57.8c8.1 2.5 14.5 7.7 18 14.6 3.6 7 4.2 15.2 1.6 23-3.9 12.7-15 20.8-28.6 20.8zM344.9 606.6c-2.8 0-2.8 0-4-0.7l-2.2-1.1H331c-13.2-3.6-23.8-19.5-21.2-35.1 3.3-13.2 16.2-23.3 30.5-23.3 1.6 0 3.2 0.1 4.8 0.4l5.2 0.1c17.2 4.8 27.5 19.8 24.7 36.9-2.6 13.4-14.9 22.8-30.1 22.8z m351.8-61.3c-1.7 0-6.2 0-7.6-0.7l-178.2-58.3c-7.6-2.5-13.9-7.9-17.6-15-3.7-7.1-4.4-15.1-2-22.5 4.1-12.4 15.9-21.1 28.7-21.1 3 0 6 0.5 8.9 1.4l176.8 57.8c15.6 5.2 24.6 22.4 19.6 37.5-3.9 12.8-15 20.9-28.6 20.9z m-297.5-93.5l-2.8-0.7c-15.7-3.9-26.3-19.8-23.7-35.4 3.3-13.2 16.2-23.3 30.5-23.3 1.6 0 3.2 0.1 4.8 0.4l5.2 0.1c18.1 3.8 29.2 19.1 26.4 37-2.4 13.2-14.7 22.7-29.9 22.7 0 0-9.5 0-9.6 0.1l-0.9-0.9z m369.3-83.3c-2.9 0-4.6 0-5.9-0.7L584 318.2c-8.1-1.4-14.4-5.8-18.3-12.3-4-6.6-4.9-14.5-2.6-21.5 3.4-13.3 15.2-22.7 27.9-22.7 2.7 0 5.4 0.4 7.9 1.3l177.4 47.4c7.9 2 14.6 7.2 18.6 14.5 3.7 6.7 4.5 14.2 2.2 21.1-4.1 13.4-15.8 22.5-28.6 22.5z m-301.6-84l-5.8-1.4c-15.7-3.9-26.3-19.8-23.7-35.4 3.3-13.2 16.2-23.3 30.5-23.3 1.6 0 3.2 0.1 4.8 0.4l5.2 0.1c16.7 3.7 27.4 19.4 24.7 37-2.4 13.2-14.7 22.6-29.9 22.6h-5.8z" fill="#231815" p-id="1703"></path></svg>