<?xml version="1.0" standalone="no"?><!DOCTYPE svg PUBLIC "-//W3C//DTD SVG 1.1//EN" "http://www.w3.org/Graphics/SVG/1.1/DTD/svg11.dtd"><svg t="1514537621716" class="icon" style="" viewBox="0 0 1024 1024" version="1.1" xmlns="http://www.w3.org/2000/svg" p-id="22050" xmlns:xlink="http://www.w3.org/1999/xlink" width="200" height="200"><defs><style type="text/css"></style></defs><path d="M790.528 66.048h-563.2c-56.32 0-102.4 46.08-102.4 102.4v691.2c0 56.32 46.08 102.4 102.4 102.4h563.2c56.32 0 102.4-46.08 102.4-102.4v-691.2c0-56.32-46.08-102.4-102.4-102.4z m51.2 762.88c0 56.32-25.6 81.92-81.92 81.92h-501.76c-56.32 0-81.92-25.6-81.92-81.92v-629.76c0-56.32 25.6-81.92 81.92-81.92h501.76c56.32 0 81.92 25.6 81.92 81.92v629.76z" fill="" p-id="22051"></path><path d="M750.08 299.52h-348.16c-14.336 0-25.6-11.264-25.6-25.6 0-13.824 11.264-25.6 25.6-25.6h348.16c14.336 0 25.6 11.264 25.6 25.6s-11.776 25.6-25.6 25.6zM750.08 465.92h-348.16c-14.336 0-25.6-11.264-25.6-25.6s11.264-25.6 25.6-25.6h348.16c14.336 0 25.6 11.264 25.6 25.6s-11.776 25.6-25.6 25.6zM750.08 619.008h-348.16c-14.336 0-25.6-11.264-25.6-25.6s11.264-25.6 25.6-25.6h348.16c14.336 0 25.6 11.264 25.6 25.6s-11.776 25.6-25.6 25.6zM535.04 779.264h-133.12c-14.336 0-25.6-11.264-25.6-25.6s11.264-25.6 25.6-25.6h133.12c14.336 0 25.6 11.264 25.6 25.6 0 13.824-11.776 25.6-25.6 25.6zM318.976 299.52h-51.2c-13.824 0-25.6-11.264-25.6-25.6 0-13.824 11.264-25.6 25.6-25.6h51.2c13.824 0 25.6 11.264 25.6 25.6s-11.776 25.6-25.6 25.6zM318.976 465.92h-51.2c-13.824 0-25.6-11.264-25.6-25.6s11.264-25.6 25.6-25.6h51.2c13.824 0 25.6 11.264 25.6 25.6s-11.776 25.6-25.6 25.6zM318.976 619.008h-51.2c-13.824 0-25.6-11.264-25.6-25.6s11.264-25.6 25.6-25.6h51.2c13.824 0 25.6 11.264 25.6 25.6s-11.776 25.6-25.6 25.6zM318.976 779.264h-51.2c-13.824 0-25.6-11.264-25.6-25.6s11.264-25.6 25.6-25.6h51.2c13.824 0 25.6 11.264 25.6 25.6 0 13.824-11.776 25.6-25.6 25.6z" fill="" p-id="22052"></path></svg>