<?xml version="1.0" standalone="no"?><!DOCTYPE svg PUBLIC "-//W3C//DTD SVG 1.1//EN" "http://www.w3.org/Graphics/SVG/1.1/DTD/svg11.dtd"><svg t="1514538921825" class="icon" style="" viewBox="0 0 1025 1024" version="1.1" xmlns="http://www.w3.org/2000/svg" p-id="3555" xmlns:xlink="http://www.w3.org/1999/xlink" width="16.015625" height="16"><defs><style type="text/css"></style></defs><path d="M298.957653 405.333333C316.02432 409.6 341.62432 413.866667 358.690987 401.066667 384.290987 384 371.490987 371.2 367.22432 362.666667L298.957653 405.333333 298.957653 405.333333 298.957653 405.333333zM298.957653 405.333333" p-id="3556"></path><path d="M401.357653 277.333333C380.02432 294.4 392.82432 307.2 401.357653 315.733333l64-42.666667C452.557653 273.066667 426.957653 264.533333 401.357653 277.333333L401.357653 277.333333 401.357653 277.333333zM401.357653 277.333333" p-id="3557"></path><path d="M128.290987 503.466667c89.6 46.933333 204.8 64 315.733333 51.2l-25.6-29.866667c-89.6 4.266667-179.2-8.533333-251.733333-46.933333C30.157653 409.6 17.357653 290.133333 136.82432 213.333333c119.466667-76.8 324.266667-85.333333 456.533333-12.8 4.266667 4.266667 12.8 8.533333 17.066667 8.533333L610.42432 200.533333c0-8.533333 4.266667-21.333333 8.533333-29.866667-72.533333-34.133333-157.866667-51.2-243.2-51.2-8.533333 0-12.8 0-21.333333 0 0 0 0 0 0 0-12.8 0-21.333333 0-34.133333 0 0 0 0 0 0 0C307.490987 123.733333 294.690987 123.733333 286.157653 128c0 0 0 0 0 0C273.357653 128 260.557653 132.266667 247.757653 132.266667c0 0 0 0 0 0C192.290987 145.066667 136.82432 166.4 94.157653 192l0 0C34.42432 234.666667 4.557653 281.6 0.290987 332.8-3.97568 392.533333 38.690987 456.533333 128.290987 503.466667L128.290987 503.466667 128.290987 503.466667zM128.290987 503.466667" p-id="3558"></path><path d="M452.557653 448l162.133333 0L614.690987 226.133333c-8.533333-8.533333-21.333333-12.8-29.866667-17.066667-123.733333-64-315.733333-59.733333-426.666667 12.8C38.690987 294.4 51.490987 405.333333 179.490987 469.333333c64 34.133333 149.333333 46.933333 230.4 42.666667-4.266667-12.8-8.533333-25.6 0-42.666667C414.157653 456.533333 431.22432 448 452.557653 448L452.557653 448 452.557653 448zM260.557653 435.2l-17.066667 12.8c-8.533333 4.266667-8.533333 4.266667-17.066667 0l-4.266667 0-4.266667-4.266667c-8.533333-4.266667-8.533333-4.266667 0-8.533333l17.066667-12.8C217.890987 413.866667 166.690987 375.466667 179.490987 366.933333c0 0 0 0 4.266667 0l46.933333-12.8c0 0 4.266667 0 8.533333 0 4.266667 0 17.066667 25.6 42.666667 42.666667L350.157653 341.333333C337.357653 324.266667 298.957653 285.866667 350.157653 256c55.466667-38.4 128-17.066667 149.333333-8.533333l17.066667-12.8c8.533333-4.266667 8.533333-4.266667 17.066667 0l8.533333 4.266667c8.533333 4.266667 8.533333 4.266667 0 8.533333l-17.066667 12.8c12.8 8.533333 59.733333 42.666667 46.933333 51.2 0 0-4.266667 0-4.266667 0l-38.4 8.533333c-4.266667 0-4.266667 0-8.533333 0-4.266667 0-17.066667-25.6-34.133333-34.133333L414.157653 332.8c17.066667 21.333333 46.933333 59.733333 0 89.6C358.690987 456.533333 294.690987 443.733333 260.557653 435.2L260.557653 435.2 260.557653 435.2zM260.557653 435.2" p-id="3559"></path><path d="M380.02432 610.133333c-102.4 0-200.533333-21.333333-277.333333-59.733333-42.666667-21.333333-76.8-51.2-102.4-81.066667 4.266667 55.466667 46.933333 110.933333 128 153.6 72.533333 38.4 162.133333 55.466667 251.733333 55.466667 51.2 0 102.4-4.266667 149.333333-17.066667l-46.933333-55.466667C448.290987 605.866667 414.157653 610.133333 380.02432 610.133333L380.02432 610.133333 380.02432 610.133333zM380.02432 610.133333" p-id="3560"></path><path d="M106.957653 661.333333c-42.666667-21.333333-76.8-51.2-102.4-81.066667 4.266667 55.466667 46.933333 110.933333 128 153.6 72.533333 38.4 162.133333 55.466667 251.733333 55.466667 81.066667 0 157.866667-12.8 226.133333-42.666667l-42.666667-46.933333c-55.466667 17.066667-119.466667 25.6-183.466667 25.6C281.890987 725.333333 183.757653 699.733333 106.957653 661.333333L106.957653 661.333333 106.957653 661.333333zM106.957653 661.333333" p-id="3561"></path><path d="M380.02432 836.266667c-102.4 0-200.533333-21.333333-277.333333-59.733333-42.666667-21.333333-76.8-51.2-102.4-81.066667 4.266667 55.466667 46.933333 110.933333 128 153.6 72.533333 38.4 162.133333 55.466667 251.733333 55.466667 102.4 0 204.8-25.6 281.6-72.533333l0 0c4.266667-4.266667 8.533333-4.266667 8.533333-8.533333L640.290987 785.066667C567.757653 819.2 478.157653 836.266667 380.02432 836.266667L380.02432 836.266667 380.02432 836.266667zM380.02432 836.266667" p-id="3562"></path><path d="M815.22432 499.2 815.22432 204.8l-136.533333 0 0 294.4L469.62432 499.2l277.333333 320 277.333333-320L815.22432 499.2 815.22432 499.2zM815.22432 499.2" p-id="3563"></path></svg>