<?xml version="1.0" standalone="no"?><!DOCTYPE svg PUBLIC "-//W3C//DTD SVG 1.1//EN" "http://www.w3.org/Graphics/SVG/1.1/DTD/svg11.dtd"><svg t="1514537742209" class="icon" style="" viewBox="0 0 1123 1024" version="1.1" xmlns="http://www.w3.org/2000/svg" p-id="22789" xmlns:xlink="http://www.w3.org/1999/xlink" width="219.3359375" height="200"><defs><style type="text/css"></style></defs><path d="M560.778615 195.699337C386.368746 195.699337 244.477953 337.59013 244.477953 512c0 65.973955 20.119717 129.257482 58.253598 182.949052 32.986977 46.439114 77.671464 83.169294 129.491432 106.213388 40.590359 18.13114 83.871145 27.255198 128.672607 27.255198 174.40987 0 316.417638-141.890793 316.417638-316.417638C877.196253 337.59013 735.30546 195.699337 560.778615 195.699337zM749.810372 651.668266c-4.211103 24.56477-22.576194 36.73018-54.978296 36.73018l-49.831391 0c-19.768791 0-33.337903-4.211103-40.707334-12.63331-7.369431-7.135481-11.112634-20.119717-11.112634-39.186658L593.180717 515.275303c-26.085447 0.935801-49.597441 1.754626-70.419008 2.573452-1.403701 42.69591-9.942883 76.267763-25.266621 100.598584-20.821567 33.454878-58.721499 59.774275-113.465844 78.72424-5.263879-8.656157-11.814485-18.482065-19.768791-29.243774 52.521819-16.376514 87.848298-39.186658 105.979438-68.430432 13.101211-20.704592 20.236692-47.491889 21.523418-80.244917-17.429289 0.818826-32.402102 1.637651-44.918437 2.339502-7.603381 0.584875-18.248115 2.690427-31.583276 6.316655l-16.259538-34.039753c13.920037-3.158328 26.202422-9.474983 36.73018-18.949966 25.851496-24.33082 50.299292-51.001142 73.343386-79.893991L371.746859 395.024903l0-29.243774 186.224355 0c-9.241033-16.376514-17.780215-30.0626-25.734521-41.175234l28.074023-15.791638c9.474983 12.867261 19.534841 28.074023 30.0626 45.503313l-20.938542 11.46356 181.545351 0 0 29.243774L552.122458 395.024903c-25.149646 29.711675-54.978296 61.294951-89.368974 94.866804 81.882568-1.754626 147.037697-3.275303 195.582362-4.562029-14.855837-17.89719-30.179575-35.56043-45.620288-52.755769l22.927119-16.961389c40.590359 40.824309 73.109436 76.969614 97.674206 108.31894l-27.723098 20.119717c-8.188257-10.644734-16.493489-21.172493-24.915696-31.583276-19.534841 0.584875-38.016907 1.052776-55.329221 1.637651l0 117.442997c0 11.814485 1.403701 19.417866 4.328079 22.576194 3.392278 4.795979 10.410784 7.135481 20.938542 7.135481l37.549006 0c17.429289 0 27.138223-6.550605 29.243774-19.768791 1.871602-11.112634 3.275303-28.307973 4.328079-51.819968 9.474983 3.743203 21.055517 7.603381 34.858579 11.814485C754.723326 619.85104 752.5008 636.695454 749.810372 651.668266z" p-id="22790"></path><path d="M646.755312 0 476.43957 0C240.73475 0 49.597441 191.137309 49.597441 426.842129l0 170.315741C49.597441 832.862691 240.73475 1024 476.43957 1024l170.315741 0c235.704821 0 426.842129-191.137309 426.842129-426.842129L1073.597441 426.842129C1073.597441 191.137309 882.460133 0 646.755312 0zM560.778615 862.808316c-50.767192 0-99.077907-10.761709-142.709618-30.179575-57.785698-25.734521-107.266164-66.675805-143.528444-117.676948-40.590359-57.200822-64.570254-127.268906-64.570254-202.717843 0-193.710761 156.98058-350.691341 350.691341-350.691341 193.710761 0 350.691341 156.98058 350.691341 350.691341C911.586932 705.710761 754.489376 862.808316 560.778615 862.808316z" p-id="22791"></path></svg>