<?xml version="1.0" standalone="no"?><!DOCTYPE svg PUBLIC "-//W3C//DTD SVG 1.1//EN" "http://www.w3.org/Graphics/SVG/1.1/DTD/svg11.dtd"><svg t="1514537700909" class="icon" style="" viewBox="0 0 1024 1024" version="1.1" xmlns="http://www.w3.org/2000/svg" p-id="22540" xmlns:xlink="http://www.w3.org/1999/xlink" width="200" height="200"><defs><style type="text/css"></style></defs><path d="M10.91072 45.80352c12.32384 0 20.7872 0 29.25056 0 225.23904 0 450.5088 2.1504 675.70688-1.02912 93.58336-1.32096 153.94816 65.3056 149.70368 151.26016-3.95264 80-0.8448 160.35328-0.8448 240.55296 0 9.14944 0 18.29888 0 28.8512-16.03072 0-29.19424 0-45.43488 0 0-19.88608 0-38.41536 0-56.94976 0-75.07968 0.29184-150.16448-0.1024-225.23904-0.3072-57.78944-34.688-93.1072-92.06784-93.20448-215.85408-0.38912-431.71328-0.17408-647.56736-0.08704-6.62016 0-13.24032 1.11616-23.12192 2.00704 0 10.15808 0 19.27168 0 28.38528 0 240.59392-0.0512 481.19296 0.03584 721.792 0.02048 65.46944 34.08384 99.80416 99.03616 99.88608 111.7696 0.13312 223.53408 0.04096 335.30368 0.04096 9.23136 0 18.46784 0 29.41952 0 0 15.15008 0 28.20608 0 44.25728-10.04032 0-19.20512 0-28.37504 0-110.05952 0-220.11904 0.09728-330.17856-0.03072-99.64544-0.11264-150.7584-51.67104-150.7584-151.75168-0.00512-251.68896 0-503.3728 0-755.06688C10.91072 69.41184 10.91072 59.3408 10.91072 45.80352z" p-id="22541"></path><path d="M784.79872 819.64032c-93.93664 0.19456-168.77056-71.424-169.51296-162.23744C614.5536 568.01792 691.2 493.60384 783.91296 493.69088c93.0048 0.08704 167.86432 73.26208 167.936 164.15744C951.91552 746.79808 876.91264 819.44576 784.79872 819.64032zM783.62112 769.00352c63.10912 0.12288 115.76832-50.63168 116.04992-111.85664 0.27648-61.05088-52.28544-111.84128-115.8656-111.95904-64.1024-0.12288-115.08736 49.27488-115.34848 111.7696C668.19072 718.69952 719.75936 768.8704 783.62112 769.00352z" p-id="22542"></path><path d="M453.49888 229.82656c83.46112 0 166.92224-0.01536 250.37824 0.0256 7.6544 0.00512 16.68608-2.10432 22.6304 1.18272 7.78752 4.31616 18.05312 12.94336 18.17088 19.8656 0.11264 6.9376-9.74848 16.27136-17.46944 20.44416-6.7584 3.6608-16.60416 2.03264-25.088 2.03776-166.92224 0.08192-333.83936 0.2304-500.7616-0.19968-17.36192-0.04096-42.6496 6.2208-42.10176-22.72256 0.512-27.24864 24.75008-20.31104 41.30816-20.40832C284.8768 229.55008 369.18784 229.82656 453.49888 229.82656z" p-id="22543"></path><path d="M450.56 410.56768c-85.32992 0-170.65984 0.03072-255.98976-0.04608-7.65952-0.01024-16.67584 1.7152-22.62016-1.65888-7.08096-4.02432-15.80544-12.63616-15.90272-19.36896-0.1024-6.784 8.28416-15.744 15.25248-19.9424 5.79584-3.49696 14.9248-1.82272 22.5792-1.82784 169.80992-0.07168 339.61984-0.06144 509.42464-0.04096 5.96992 0 13.36832-1.96096 17.60256 0.81408 8.13568 5.31968 19.87584 13.2608 20.02944 20.33664 0.1536 6.97344-11.14112 16.05632-19.38432 20.736-5.86752 3.32288-15.0016 0.98304-22.67648 0.98304C616.09984 410.57792 533.32992 410.56768 450.56 410.56768z" p-id="22544"></path><path d="M779.83232 844.7488c99.21024 2.31936 175.26784 36.06528 232.3456 108.1856 5.32992 6.73792 3.84512 18.87232 5.52448 28.49792-11.49952 0.04608-25.36448 4.20352-33.9968-0.75264-15.93344-9.15456-28.17536-24.46848-43.03872-35.79392-103.08608-78.55104-227.75296-73.65632-324.72576 12.38016-7.00416 6.21568-12.71808 15.2064-20.82304 18.51392-9.42592 3.85024-20.82816 2.86208-31.37536 3.968 1.2544-9.63584-0.86528-21.91872 4.29568-28.4928 42.6496-54.41024 99.2-87.08608 166.66624-100.72576C752.11776 847.01184 770.03264 845.96224 779.83232 844.7488z" p-id="22545"></path><path d="M365.45024 502.43584c57.95328 0 115.90144 0.08704 173.85472-0.0512 16.47616-0.04096 33.13152 1.87904 32.9728 22.5536-0.15872 20.64384-17.00864 22.272-33.3568 22.26176-115.90144-0.07168-231.80288-0.05632-347.70432-0.01536-16.30208 0.00512-32.94208-1.3568-32.77824-22.62016 0.15872-21.2992 16.95744-22.18496 33.16224-22.15936C249.55392 502.48704 307.50208 502.43584 365.45024 502.43584z" p-id="22546"></path><path d="M339.31776 680.96c-50.28352 0-100.56704-0.11776-150.84544 0.07168-15.88736 0.06144-30.31552-2.33472-30.15168-22.2208 0.1536-18.2784 14.11584-21.49376 28.72832-21.51424 102.26688-0.13824 204.53888-0.128 306.80576-0.01536 14.62272 0.01536 28.60032 3.10272 28.86144 21.36064 0.2816 19.85024-14.03904 22.4512-29.99808 22.38976C441.58976 680.83712 390.45632 680.96 339.31776 680.96z" p-id="22547"></path><path d="M321.33632 783.75424c44.32896 0.00512 88.65792 0.18432 132.98688-0.09216 16.31744-0.10752 32.10752 4.56704 29.3376 22.48192-1.3312 8.61184-18.16576 20.95104-28.17024 21.13024-89.48224 1.64864-179.00544 1.01376-268.5184 0.90624-14.87872-0.01536-28.43648-4.06016-28.63616-21.86752-0.21504-19.49184 13.9008-22.71232 30.00832-22.63552C232.6784 783.89248 277.00736 783.75424 321.33632 783.75424z" p-id="22548"></path></svg>