<?xml version="1.0" standalone="no"?><!DOCTYPE svg PUBLIC "-//W3C//DTD SVG 1.1//EN" "http://www.w3.org/Graphics/SVG/1.1/DTD/svg11.dtd"><svg t="1514538121016" class="icon" style="" viewBox="0 0 1057 1024" version="1.1" xmlns="http://www.w3.org/2000/svg" p-id="1459" xmlns:xlink="http://www.w3.org/1999/xlink" width="206.4453125" height="200"><defs><style type="text/css"></style></defs><path d="M416.207114 0a233.207742 233.207742 0 0 0-144.020645 410.260645 423.473548 423.473548 0 0 0-272.185807 396.387097c0 23.122581 10.570323 40.96 33.692904 40.96s25.104516-17.176774 25.104516-40.299355A334.286452 334.286452 0 0 1 330.323243 453.863226a35.674839 35.674839 0 0 0 9.909677-66.064516 163.84 163.84 0 0 1-96.454193-151.948387A179.695484 179.695484 0 0 1 412.243243 56.154839h3.963871a27.747097 27.747097 0 1 0 0-56.154839z" fill="#2c2c2c" p-id="1460"></path><path d="M867.427759 513.32129a422.152258 422.152258 0 0 0-105.703226-66.064516 233.207742 233.207742 0 1 0-303.236129 0 423.473548 423.473548 0 0 0-272.185806 396.387097c0 23.122581 10.570323 40.96 33.692903 40.96s25.104516-17.176774 25.104516-40.299355A336.929032 336.929032 0 0 1 607.794211 483.592258a381.192258 381.192258 0 0 1 221.316129 76.634839 50.869677 50.869677 0 0 0 25.104516 14.534193H858.839372c23.122581 0 29.068387-5.945806 29.068387-29.068387a43.602581 43.602581 0 0 0-20.48-32.371613zM607.794211 438.007742a166.482581 166.482581 0 0 1-178.374194-167.803871A179.034839 179.034839 0 0 1 607.794211 92.490323a168.464516 168.464516 0 0 1 178.374193 178.374193 175.731613 175.731613 0 0 1-178.374193 167.143226zM1006.163243 776.91871l-15.194839-35.014194 27.747097-46.245161-38.978064-40.96-44.923871 29.068387-33.692904-17.176774-11.230967-50.869678h-57.476129l-11.230968 50.869678-33.692903 18.498064-44.923871-29.068387-38.978065 40.96 27.086452 46.245161-16.516129 35.014194L660.645824 792.774194v58.136774l50.869677 11.891613 16.516129 35.014193-27.086452 46.245161 38.978065 40.96 44.923871-29.068387 33.692903 17.176775 11.230968 50.869677h56.815484l11.230968-50.869677 33.692903-17.176775 42.941935 29.068387 38.978065-40.96-27.747097-46.245161 16.516129-35.014193 50.869677-11.891613V792.774194z m-72.670968 110.327742a97.114839 97.114839 0 0 1-168.464516-73.992258A96.454194 96.454194 0 0 1 858.839372 714.818065a109.667097 109.667097 0 0 1 101.739355 98.436129 101.739355 101.739355 0 0 1-27.086452 73.992258z" fill="#2c2c2c" p-id="1461"></path></svg>