<?xml version="1.0" standalone="no"?><!DOCTYPE svg PUBLIC "-//W3C//DTD SVG 1.1//EN" "http://www.w3.org/Graphics/SVG/1.1/DTD/svg11.dtd"><svg t="1514537652197" class="icon" style="" viewBox="0 0 1110 1024" version="1.1" xmlns="http://www.w3.org/2000/svg" p-id="22172" xmlns:xlink="http://www.w3.org/1999/xlink" width="216.796875" height="200"><defs><style type="text/css"></style></defs><path d="M1110.704326 267.950113v194.364176c0 11.676446-2.554223 19.825632-7.784297 24.812448-5.108445 4.621927-13.379261 8.392446-24.569189 10.33852-14.352298 1.946074-28.218078 10.095261-40.989191 23.839411-12.892743 13.74415-19.217484 32.840005-19.217484 57.165934 0 16.176743 2.675852 29.677634 7.784297 40.624302 5.108445 11.433187 11.433187 20.190521 18.487707 27.123412 7.176149 6.93289 14.352298 12.041335 21.406818 15.446965 7.297779 3.162371 12.892743 4.743556 17.02815 4.743556 11.433187 2.067704 18.852595 6.324742 22.258226 12.041335 3.40563 5.594964 5.351704 14.473928 5.351704 26.272004V934.115691c0 29.677634-5.838223 59.720157-17.02815 70.423565-11.189928 10.825039-30.89393 15.568595-58.62549 14.352299-8.270816 0-14.717187 0.486519-36.853783 0.729778-22.014966 0.608148-44.151562 0.729778-66.774677 0.729778h-11.554816V173.565507h115.304905c32.110227 0 52.422378 5.959853 61.666231 18.122817 9.365483 12.527854 14.109039 47.557192 14.109039 76.261789zM32.944022 173.565507c-8.027557 0-14.838817 3.284-19.460743 10.460149-4.500297 6.93289-6.93289 22.988003-7.662668 31.623709-0.486519 8.635705 1.459556 23.109633 5.716594 31.502078 4.013778 8.392446 10.825039 14.352298 20.190521 17.514669 9.243853 3.284 16.784891 8.514075 22.501485 16.055114 5.716593 7.297779 8.878964 41.23245 10.09526 50.111414 0.729778 9.122224-1.337926 17.879558-6.324741 26.393634-5.351704 8.514075-13.987409 14.838817-26.393634 18.974225-9.122224 4.135408-16.784891 10.581779-22.258225 19.217484-5.594964 8.635705-9.000594 17.27141-9.243853 26.272004-0.608148 9.243853 1.459556 17.636299 5.959852 25.785485 4.500297 7.784297 12.041335 13.500891 22.501485 16.663262 12.162965 3.162371 21.771707 9.487112 28.461338 18.001188 6.568001 9.243853 10.095261 18.366077 10.825038 28.218078 0.486519 9.487112-2.189334 18.974225-7.662668 28.704597-5.959853 9.487112-14.109039 16.298373-25.663855 20.55541-10.21689 4.500297-18.001188 10.825039-23.109633 19.217484-5.230075 8.635705-7.905927 17.636299-8.514075 27.245041-0.608148 9.608742 1.337926 18.730966 5.351704 27.123411 4.013778 8.514075 10.21689 15.082076 18.366077 19.217485 25.663856 12.892743 39.043117 28.339708 39.894524 46.340895 1.216296 18.001188-8.514075 32.353486-29.069486 43.178525-9.243853 4.135408-16.784891 10.825039-22.258225 19.825633-5.838223 9.000594-8.878964 18.609336-9.487113 28.704596-0.486519 10.095261 1.459556 19.217484 5.716594 27.001782 4.013778 8.392446 10.825039 13.62252 19.947262 17.028151 12.406224 3.284 21.893337 9.000594 28.704597 17.514669 6.446371 8.270816 9.852001 17.39304 10.460149 26.758522 0.729778 9.852001-1.824445 19.217484-7.662667 28.704597-5.594964 9.730372-14.473928 17.636299-26.758523 24.08267-8.392446 4.135408-14.230669 10.946668-17.879558 19.825633-3.770519 9.243853-4.986816 17.879558-4.013778 26.393633 1.216296 8.514075 3.892149 25.907115 8.635705 32.596746 4.500297 7.176149 10.946668 10.46015 19.339114 10.460149H847.132881V173.565507H32.944022z m241.678109 346.644494c33.569783-33.083264 68.355862-76.748307 103.385201-130.143722l3.40563-5.108446 38.313339 22.014967-3.892149 5.838223c-0.608148 0.851408-1.094667 1.702815-1.702815 2.554222h0.729778c87.086827-2.189334 162.01069-7.176149 222.825513-15.082076l6.081483-0.729778 8.270816 42.327117-7.05452 0.729778c-29.191115 3.040741-59.963416 5.716593-91.465494 8.027557v40.381043H687.798043v41.23245H553.397283v38.556598h111.534386V611.797126H405.130743v-41.232451h104.236608v-38.556598h-121.021499v-41.23245h121.021499v-37.461932c-28.461337 1.581185-58.260601 2.919112-88.546384 3.892149l-5.594963 0.243259-0.973038-5.594964c-1.581185-9.000594-3.52726-18.609336-5.594963-28.582967-10.095261 14.717187-20.068892 28.704597-29.677634 41.718969v161.524172h-43.665044V519.358594c-10.581779 11.919705-20.79867 22.623114-30.650671 32.110227l-5.108445 4.865185-4.621926-5.351704c-5.230075-6.568001-12.041335-13.74415-20.190522-21.406818l-4.986815-4.621927 4.865185-4.743556z m416.459913 165.65958c-3.040741 21.528448-6.324742 40.867561-9.852002 57.287564-5.716593 28.461337-25.177337 43.543414-56.192897 43.543413H577.115064c-33.448153 0-51.084452-18.244447-51.084452-52.665637v-58.868749h-100.222829v1.216296c0 35.394227-9.122224 62.396009-27.245041 80.275567l-0.12163 0.12163c-19.825632 18.122817-51.327711 32.840005-93.898087 44.029932l-4.500297 1.216297-2.554223-3.892149c-5.838223-9.000594-12.771113-18.487706-20.433781-28.096448l-6.324741-7.905927 9.852001-2.432593c40.502673-10.095261 67.990973-20.920299 81.613493-32.231857l0.12163-0.12163c12.162965-9.608742 18.366077-27.4883 18.366077-53.273785V634.906759h190.715287v91.952013c0 15.446965 7.297779 17.636299 15.203706 17.636299h27.36667c18.852595 0 23.109633-9.243853 24.690819-16.176743 2.919112-13.257632 5.594964-32.231857 8.027556-56.436157l0.973038-9.122223 8.270816 3.892148c8.514075 4.013778 18.852595 8.149186 30.89393 12.406224l4.986815 1.824445-0.729777 4.986816z" p-id="22173"></path></svg>